<?xml version="1.0" encoding="utf-8"?>
<!-- Generator: Adobe Illustrator 17.0.0, SVG Export Plug-In . SVG Version: 6.00 Build 0)  -->
<!DOCTYPE svg PUBLIC "-//W3C//DTD SVG 1.1//EN" "http://www.w3.org/Graphics/SVG/1.1/DTD/svg11.dtd">
<svg version="1.1" id="Layer_1" xmlns="http://www.w3.org/2000/svg" xmlns:xlink="http://www.w3.org/1999/xlink" x="0px" y="0px"
	 width="75px" height="75px" viewBox="0 0 75 75" enable-background="new 0 0 75 75" xml:space="preserve">
<circle fill="#C0C726" cx="37.5" cy="37.5" r="37.204"/>
<g>
	<path fill="#425E31" d="M19.546,56.029l-0.687-3.038h-3.268l-0.687,3.038h-2.664l3.726-14.567h2.539l3.725,14.567H19.546z
		 M17.902,48.829c-0.069-0.277-0.139-0.586-0.208-0.927c-0.069-0.34-0.135-0.673-0.198-0.999c-0.062-0.325-0.118-0.631-0.167-0.915
		c-0.049-0.284-0.087-0.517-0.114-0.697c-0.028,0.194-0.066,0.427-0.115,0.697S17,46.554,16.945,46.872
		c-0.056,0.319-0.118,0.646-0.188,0.979s-0.139,0.646-0.208,0.937l-0.396,1.769h2.144L17.902,48.829z"/>
	<path fill="#425E31" d="M27.58,43.959v12.07h-2.622v-12.07H21.94v-2.497h8.657v2.497H27.58z"/>
	<path fill="#425E31" d="M42.97,56.029l-2.261-5.536h-0.851v5.536h-2.622V41.462h3.871c1.415,0,2.542,0.378,3.382,1.134
		c0.839,0.757,1.259,1.891,1.259,3.402c0,1.027-0.234,1.863-0.703,2.508c-0.469,0.646-1.06,1.135-1.773,1.468l2.519,6.056H42.97z
		 M42.644,44.542c-0.322-0.347-0.874-0.521-1.654-0.521h-1.131v4.058h1.274c1.328,0,1.993-0.673,1.993-2.019
		C43.126,45.395,42.965,44.889,42.644,44.542z"/>
	<path fill="#425E31" d="M47.851,56.029V41.462h7.492v2.497h-4.87v3.08h3.268v2.456h-3.268v4.037h5.058v2.497H47.851z"/>
	<path fill="#425E31" d="M57.861,56.029V41.462h2.622v14.567H57.861z"/>
</g>
<g>
	<path fill="#425E31" d="M25.253,32.921c-0.237,1.157-0.604,2.165-1.104,3.023c-0.5,0.859-1.135,1.534-1.906,2.024
		c-0.771,0.49-1.691,0.736-2.76,0.736c-1.069,0-1.989-0.246-2.76-0.736c-0.771-0.491-1.402-1.161-1.893-2.011
		c-0.491-0.85-0.854-1.853-1.091-3.01c-0.236-1.157-0.355-2.392-0.355-3.707c0-1.332,0.119-2.576,0.355-3.733
		c0.237-1.157,0.605-2.164,1.104-3.023c0.5-0.858,1.139-1.533,1.919-2.024c0.779-0.49,1.704-0.736,2.773-0.736
		s1.985,0.246,2.747,0.736c0.762,0.491,1.389,1.162,1.88,2.011c0.49,0.85,0.854,1.853,1.091,3.01
		c0.236,1.157,0.355,2.392,0.355,3.707C25.608,30.521,25.489,31.765,25.253,32.921z M21.599,24.654
		c-0.429-1.095-1.135-1.643-2.116-1.643c-0.999,0-1.705,0.539-2.116,1.617c-0.412,1.078-0.618,2.598-0.618,4.561
		c0,1.963,0.214,3.492,0.644,4.587c0.429,1.095,1.143,1.643,2.142,1.643c0.981,0,1.678-0.539,2.09-1.617
		c0.412-1.078,0.618-2.598,0.618-4.561C22.243,27.279,22.028,25.75,21.599,24.654z"/>
	<path fill="#425E31" d="M36.096,38.416l-3.391-8.202c-0.246-0.578-0.495-1.209-0.749-1.893c-0.254-0.684-0.469-1.297-0.644-1.84
		c0,0.281,0.004,0.601,0.013,0.959c0.009,0.359,0.017,0.732,0.026,1.117c0.009,0.386,0.013,0.762,0.013,1.13s0,0.692,0,0.973v7.755
		h-2.997V20.014h3.312l3.233,8.07c0.105,0.281,0.223,0.587,0.355,0.92c0.131,0.333,0.263,0.675,0.394,1.025
		c0.131,0.351,0.258,0.688,0.381,1.012c0.122,0.324,0.228,0.618,0.315,0.88c0-0.28-0.009-0.608-0.026-0.986
		c-0.018-0.376-0.031-0.762-0.04-1.156c-0.009-0.395-0.018-0.776-0.026-1.144c-0.009-0.368-0.013-0.701-0.013-0.999v-7.624h2.997
		v18.402H36.096z"/>
	<path fill="#425E31" d="M42.668,38.416V20.014h3.312v15.168h5.758v3.234H42.668z"/>
	<path fill="#425E31" d="M58.257,31.476v6.94h-3.312v-6.888l-4.731-11.514h3.627l1.422,3.733c0.159,0.403,0.31,0.811,0.451,1.222
		c0.142,0.412,0.273,0.811,0.397,1.196c0.123,0.386,0.233,0.741,0.331,1.064c0.097,0.325,0.163,0.592,0.199,0.802
		c0.053-0.21,0.123-0.481,0.212-0.814c0.088-0.333,0.194-0.692,0.317-1.078c0.124-0.385,0.261-0.784,0.411-1.196
		c0.149-0.412,0.296-0.811,0.437-1.196l1.422-3.733h3.575L58.257,31.476z"/>
</g>
</svg>
